<?xml version="1.0" encoding="UTF-8" standalone="no"?>
<svg
   xmlns:dc="http://purl.org/dc/elements/1.1/"
   xmlns:cc="http://creativecommons.org/ns#"
   xmlns:rdf="http://www.w3.org/1999/02/22-rdf-syntax-ns#"
   xmlns:svg="http://www.w3.org/2000/svg"
   xmlns="http://www.w3.org/2000/svg"
   id="svg2"
   viewBox="-1 -1 170 170"
   height="170"
   width="170"
   version="1.1">
  <metadata
     id="metadata31">
    <rdf:RDF>
      <cc:Work
         rdf:about="">
        <dc:format>image/svg+xml</dc:format>
        <dc:type
           rdf:resource="http://purl.org/dc/dcmitype/StillImage" />
        <dc:title></dc:title>
      </cc:Work>
    </rdf:RDF>
  </metadata>
  <defs
     id="defs29" />
  <!-- Exported by Scratch - http://scratch.mit.edu/ -->
  <g
     transform="translate(-157.57328,-96.191802)"
     id="ID0.31342331739142537">
    <path
       style="fill:#3fa7d6;stroke:none"
       transform="matrix(0.89947093,0,0,0.89947093,26.15,-3.75)"
       d="m 239.5,110 c 26.072,0 49.697,10.589 66.804,27.696 17.107,17.107 27.696,40.732 27.696,66.804 0,26.072 -10.589,49.697 -27.696,66.804 C 289.197,288.411 265.572,299 239.5,299 213.428,299 189.803,288.411 172.696,271.304 155.589,254.197 145,230.572 145,204.5 145,178.428 155.589,154.803 172.696,137.696 189.803,120.589 213.428,110 239.5,110 Z"
       id="ID0.8611838519573212" />
    <path
       style="fill:#ffffff;stroke:none;stroke-linecap:round"
       transform="matrix(1.0219181,1.0219181,-1.0219181,1.0219181,164.3,-208.65)"
       d="m 219.4,106.1 15.55,-0.35 1.6,14.7 -18.15,-0.45 1,-13.9 z"
       id="ID0.8602016014046967" />
    <path
       style="fill:none;stroke:#ffffff;stroke-width:15"
       transform="matrix(1.4452105,0,0,1.4452105,33.2,49.3)"
       d="m 143.5,62.5 c 7.587,0 14.462,3.081 19.44,8.06 4.979,4.978 8.06,11.853 8.06,19.44 0,7.587 -3.081,14.462 -8.06,19.44 -4.978,4.979 -11.853,8.06 -19.44,8.06 -7.587,0 -14.462,-3.081 -19.44,-8.06 C 119.081,104.462 116,97.587 116,90 c 0,-7.587 3.081,-14.462 8.06,-19.44 4.978,-4.979 11.853,-8.06 19.44,-8.06 z"
       id="ID0.5236586132086813" />
    <path
       style="fill:#ffffff;stroke:none;stroke-linecap:round"
       transform="matrix(-1.0219182,1.0219182,1.0219182,1.0219182,317.1,-208.65)"
       d="m 219.4,106.1 15.55,-0.35 1.6,14.7 -18.15,-0.45 1,-13.9 z"
       id="path8" />
    <path
       style="fill:#ffffff;stroke:none"
       transform="matrix(1.6172594,0,0,1.6172594,-11.9,27.05)"
       d="m 156,84 c 2.897,0 5.522,1.177 7.423,3.077 1.9,1.901 3.077,4.526 3.077,7.423 0,2.897 -1.177,5.522 -3.077,7.423 -1.901,1.9 -4.526,3.077 -7.423,3.077 -2.897,0 -5.522,-1.177 -7.423,-3.077 -1.9,-1.901 -3.077,-4.526 -3.077,-7.423 0,-2.897 1.177,-5.522 3.077,-7.423 C 150.478,85.177 153.103,84 156,84 Z"
       id="ID0.7926381179131567" />
    <path
       style="fill:#ffffff;stroke:none;stroke-linecap:round"
       transform="matrix(-0.04054386,1.4446416,-1.4446416,-0.04054386,470.1,-143.9)"
       d="m 219.4,106.1 15.55,-0.35 1.6,14.7 -18.15,-0.45 1,-13.9 z"
       id="path11" />
    <path
       style="fill:#ffffff;stroke:none;stroke-linecap:round"
       transform="matrix(1.0219182,-1.0219182,-1.0219182,-1.0219182,164.5,568)"
       d="m 219.4,106.1 15.55,-0.35 1.6,14.7 -18.15,-0.45 1,-13.9 z"
       id="path13" />
    <path
       style="fill:#ffffff;stroke:none;stroke-linecap:round"
       transform="matrix(-1.445182,-0.0090875,0.0090875,-1.445182,568.1,401.65)"
       d="m 219.4,106.1 15.55,-0.35 1.6,14.7 -18.15,-0.45 1,-13.9 z"
       id="path15" />
    <path
       style="fill:#ffffff;stroke:none;stroke-linecap:round"
       transform="matrix(-1.0219182,-1.0219182,1.0219182,-1.0219182,316.85,567.35)"
       d="m 219.4,106.1 15.55,-0.35 1.6,14.7 -18.15,-0.45 1,-13.9 z"
       id="path17" />
    <path
       style="fill:#ffffff;stroke:none;stroke-linecap:round"
       transform="matrix(0.04054386,1.4446416,1.4446416,-0.04054386,11.3,-144.6)"
       d="m 219.4,106.1 15.55,-0.35 1.6,14.7 -18.15,-0.45 1,-13.9 z"
       id="path19" />
    <path
       style="fill:#ffffff;stroke:none;stroke-linecap:round"
       transform="matrix(-1.445182,0.0090875,0.0090875,1.445182,568.95,-44.4)"
       d="m 219.4,106.1 15.55,-0.35 1.6,14.7 -18.15,-0.45 1,-13.9 z"
       id="path21" />
    <g
       transform="translate(156,95)"
       id="ID0.3161680568009615">
      <path
         style="fill:#3fa7d6;stroke:none;stroke-linecap:round"
         transform="matrix(0.09281798,0,0,0.15388806,43.8,62)"
         d="m 420.3,183.65 c 11.848,-2.272 24.34,-2.467 36.25,-0.15 4.086,0.803 7.842,4.94 8.5,9 2.524,15.641 3.074,32.561 0.5,48.5 -0.944,4.624 -6.121,7.146 -10.45,7.8 -11.915,2.002 -24.298,1.692 -36.35,-0.15 -3.615,-0.55 -8.177,-2.538 -8.7,-6.65 -2.091,-16.461 -1.87,-33.46 0.95,-49.8 0.714,-4.14 5.156,-7.768 9.3,-8.55 z"
         id="ID0.8560618390329182" />
      <path
         style="fill:#3fa7d6;stroke:none"
         transform="matrix(0.22630559,0,0,0.22630559,28.5,44.8)"
         d="m 238.5,154.5 17.5,0 0,44 -17.5,0 0,-44 z"
         id="ID0.8724809172563255" />
      <path
         style="fill:#3fa7d6;stroke:none;stroke-linecap:round"
         transform="matrix(0.29219294,0,0,0.29219294,9.45,30.6)"
         d="m 272,141.25 c 4.339,1.347 9.122,3.075 12,6.5 2.562,3.288 4.32,9.762 3,12 -0.93,1.57 -4.76,-3.282 -7.5,-4.25 -2.919,-1.145 -6.269,-3.015 -9.25,-2 -2.687,0.915 -3.412,4.629 -4.75,7.25 -0.925,1.485 -0.257,4.256 -2,5 -3.756,1.59 -8.423,1.92 -12.25,0.5 -2.927,-1.088 -3.596,-5.518 -6.25,-7.5 -1.227,-0.929 -3.062,-1.073 -4.75,-0.75 -1.585,0.309 -2.286,2.686 -4,2.75 -3.248,0.108 -7.895,0.588 -9.5,-2.25 -2.539,-4.496 -2.804,-11.123 -0.5,-15.5 1.498,-2.635 6.19,-1.875 9,-1.25 1.421,0.316 0.938,3.136 2.25,3.75 1.151,0.537 2.669,0.002 3.75,-0.75 2.269,-1.139 3.551,-3.846 6,-4.75 3.287,-1.209 7.041,-0.865 10.5,-0.75 4.825,0.303 9.72,0.594 14.25,2 z"
         id="ID0.45844396064057946" />
    </g>
  </g>
</svg>
