<?xml version="1.0" encoding="UTF-8" standalone="no"?>
<svg
   xmlns:dc="http://purl.org/dc/elements/1.1/"
   xmlns:cc="http://creativecommons.org/ns#"
   xmlns:rdf="http://www.w3.org/1999/02/22-rdf-syntax-ns#"
   xmlns:svg="http://www.w3.org/2000/svg"
   xmlns="http://www.w3.org/2000/svg"
   id="svg2"
   viewBox="-1 -1 170.00002 170.00002"
   height="170.00002"
   width="170.00002"
   version="1.1">
  <metadata
     id="metadata52">
    <rdf:RDF>
      <cc:Work
         rdf:about="">
        <dc:format>image/svg+xml</dc:format>
        <dc:type
           rdf:resource="http://purl.org/dc/dcmitype/StillImage" />
        <dc:title></dc:title>
      </cc:Work>
    </rdf:RDF>
  </metadata>
  <defs
     id="defs50" />
  <!-- Exported by Scratch - http://scratch.mit.edu/ -->
  <path
     style="fill:#fac05e;stroke:none"
     d="m 84.000003,-1 c 23.451007,0 44.701007,9.5244977 60.088257,24.911746 15.38725,15.38725 24.91175,36.63725 24.91175,60.088256 0,23.451008 -9.5245,44.701008 -24.91175,60.088258 -15.38725,15.38725 -36.63725,24.91175 -60.088257,24.91175 -23.451007,0 -44.701007,-9.5245 -60.088256,-24.91175 C 8.5244977,128.70101 -1,107.45101 -1,84.000002 -1,60.548996 8.5244977,39.298996 23.911747,23.911746 39.298996,8.5244977 60.548996,-1 84.000003,-1 Z"
     id="ID0.8611838519573212" />
  <g
     transform="translate(-157.97328,-96.041803)"
     id="ID0.7522996715269983">
    <path
       style="fill:#ffffff;stroke:none"
       transform="matrix(0.89423078,0,0,0.89423078,-7.05,-10.45)"
       d="m 226,147 104,0 0,133 -104,0 0,-133 z"
       id="ID0.9621864170767367" />
    <path
       style="fill:#ffffff;stroke:none"
       d="m 283,211 4,0 0,0 -4,0 0,0 z"
       id="ID0.3338167443871498" />
    <path
       style="fill:#ffffff;stroke:none"
       d="m 274,210 4,0 0,1 -4,0 0,-1 z"
       id="ID0.9614858636632562" />
    <path
       style="fill:#fac05e;stroke:none"
       transform="matrix(1.2307693,0,0,1.2307693,-47.55,54.75)"
       d="m 202,131 13,0 0,13 -13,0 0,-13 z"
       id="ID0.5831293850205839" />
    <path
       style="fill:#fac05e;stroke:none"
       transform="matrix(1.2307693,0,0,1.2307693,-47.65,32.75)"
       d="m 202,131 13,0 0,13 -13,0 0,-13 z"
       id="path12" />
    <path
       style="fill:#fac05e;stroke:none"
       transform="matrix(1.2307693,0,0,1.2307693,-47.55,10.75)"
       d="m 202,131 13,0 0,13 -13,0 0,-13 z"
       id="path14" />
    <path
       style="fill:#fac05e;stroke:none"
       transform="matrix(1.2307693,0,0,1.2307693,-47.5,-11.25)"
       d="m 202,131 13,0 0,13 -13,0 0,-13 z"
       id="path16" />
    <path
       style="fill:#fac05e;stroke:none"
       transform="matrix(1.2307693,0,0,1.2307693,-47.25,-32.55)"
       d="m 202,131 13,0 0,13 -13,0 0,-13 z"
       id="path18" />
    <g
       transform="translate(156,95)"
       id="ID0.5721739688888192">
      <path
         style="fill:#fac05e;stroke:none"
         transform="translate(-156,-93.5)"
         d="m 220.5,130 60,0 0,3.5 -60,0 0,-3.5 z"
         id="ID0.01809330051764846" />
      <path
         style="fill:#fac05e;stroke:none"
         transform="matrix(0.58333331,0,0,0.58333331,-63.35,-32.7)"
         d="m 220.5,130 60,0 0,3.5 -60,0 0,-3.5 z"
         id="path22" />
    </g>
    <g
       transform="translate(156,95)"
       id="g24">
      <path
         style="fill:#fac05e;stroke:none"
         transform="translate(-156,-72.5)"
         d="m 220.5,130 60,0 0,3.5 -60,0 0,-3.5 z"
         id="path26" />
      <path
         style="fill:#fac05e;stroke:none"
         transform="matrix(0.58333331,0,0,0.58333331,-63.35,-11.7)"
         d="m 220.5,130 60,0 0,3.5 -60,0 0,-3.5 z"
         id="path28" />
    </g>
    <g
       transform="translate(156,95)"
       id="g30">
      <path
         style="fill:#fac05e;stroke:none"
         transform="translate(-156,-49.8)"
         d="m 220.5,130 60,0 0,3.5 -60,0 0,-3.5 z"
         id="path32" />
      <path
         style="fill:#fac05e;stroke:none"
         transform="matrix(0.58333331,0,0,0.58333331,-63.35,11)"
         d="m 220.5,130 60,0 0,3.5 -60,0 0,-3.5 z"
         id="path34" />
    </g>
    <g
       transform="translate(156,95)"
       id="g36">
      <path
         style="fill:#fac05e;stroke:none"
         transform="translate(-156,-26.3)"
         d="m 220.5,130 60,0 0,3.5 -60,0 0,-3.5 z"
         id="path38" />
      <path
         style="fill:#fac05e;stroke:none"
         transform="matrix(0.58333331,0,0,0.58333331,-63.35,34.5)"
         d="m 220.5,130 60,0 0,3.5 -60,0 0,-3.5 z"
         id="path40" />
    </g>
    <g
       transform="translate(156,95)"
       id="g42">
      <path
         style="fill:#fac05e;stroke:none"
         transform="translate(-155.5,-4.75)"
         d="m 220.5,130 60,0 0,3.5 -60,0 0,-3.5 z"
         id="path44" />
      <path
         style="fill:#fac05e;stroke:none"
         transform="matrix(0.58333331,0,0,0.58333331,-62.85,56.05)"
         d="m 220.5,130 60,0 0,3.5 -60,0 0,-3.5 z"
         id="path46" />
    </g>
  </g>
</svg>
