<svg version="1.1" width="173" height="172" viewBox="-1 -1 173 172" xmlns="http://www.w3.org/2000/svg" xmlns:xlink="http://www.w3.org/1999/xlink">
  <!-- Exported by Scratch - http://scratch.mit.edu/ -->
  <path id="ID0.8611838519573212" fill="#59CD90" stroke="none" d="M 239.500 110 C 265.572 110 289.197 120.589 306.304 137.696 C 323.411 154.803 334 178.428 334 204.500 C 334 230.572 323.411 254.197 306.304 271.304 C 289.197 288.411 265.572 299 239.500 299 C 213.428 299 189.803 288.411 172.696 271.304 C 155.589 254.197 145 230.572 145 204.500 C 145 178.428 155.589 154.803 172.696 137.696 C 189.803 120.589 213.428 110 239.500 110 Z " transform="matrix(0.8994709253311157, 0, 0, 0.8994709253311157, -129.95, -98.9)"/>
  <g id="ID0.30973091442137957">
    <path id="ID0.3334211544133723" fill="#FFFFFF" stroke="#FFFFFF" stroke-width="2" d="M 165.500 124.500 L 358.500 124.500 L 262 204.500 L 165.500 124.500 Z " transform="matrix(0.5979005098342896, 0, 0, 0.5979005098342896, -69.85, -26.5)"/>
    <path id="ID0.3334211544133723" fill="#FFFFFF" stroke="#FFFFFF" stroke-width="2" d="M 165.500 124.500 L 395.700 124.200 L 288.700 203.850 L 165.500 124.500 Z " transform="matrix(-0.0006382009596563876, 0.3148344159126282, -0.5978992581367493, -0.0012120024766772985, 225.85, -1.45)"/>
    <path id="ID0.3334211544133723" fill="#FFFFFF" stroke="#FFFFFF" stroke-width="2" d="M 165.500 124.500 L 395.700 124.200 L 288.700 203.850 L 165.500 124.500 Z " transform="matrix(0.0006382009596563876, 0.3148344159126282, 0.5978992581367493, -0.0012120024766772985, -52.6, -2.55)"/>
    <path id="ID0.3334211544133723" fill="#FFFFFF" stroke="#FFFFFF" stroke-width="2" d="M 165.500 124.500 L 358.500 124.500 L 285 177.650 L 264.500 162.650 L 241.500 180.150 L 165.500 124.500 Z " transform="matrix(0.5979005098342896, 0, 0, -0.5979005098342896, -71.05, 199.25)"/>
  </g>
  <path id="ID0.396528790704906" fill="#CACF85" stroke="none" d="M 378.500 291 C 378.638 291 378.763 291 378.853 291 C 378.944 291 379 291 379 291 C 379 291 378.944 291 378.853 291 C 378.763 291 378.638 291 378.500 291 C 378.362 291 378.237 291 378.147 291 C 378.056 291 378 291 378 291 C 378 291 378.056 291 378.147 291 C 378.237 291 378.362 291 378.500 291 Z " transform="matrix(1, 0, 0, 1, -156, -95)"/>
</svg>