<?xml version="1.0" encoding="UTF-8" standalone="no"?>
<svg
   xmlns:dc="http://purl.org/dc/elements/1.1/"
   xmlns:cc="http://creativecommons.org/ns#"
   xmlns:rdf="http://www.w3.org/1999/02/22-rdf-syntax-ns#"
   xmlns:svg="http://www.w3.org/2000/svg"
   xmlns="http://www.w3.org/2000/svg"
   id="svg2"
   viewBox="-1 -1 170 170"
   height="170"
   width="170"
   version="1.1">
  <metadata
     id="metadata22">
    <rdf:RDF>
      <cc:Work
         rdf:about="">
        <dc:format>image/svg+xml</dc:format>
        <dc:type
           rdf:resource="http://purl.org/dc/dcmitype/StillImage" />
        <dc:title></dc:title>
      </cc:Work>
    </rdf:RDF>
  </metadata>
  <defs
     id="defs20" />
  <!-- Exported by Scratch - http://scratch.mit.edu/ -->
  <g
     transform="translate(-157.57328,-96.191802)"
     id="ID0.8449794873595238">
    <path
       style="fill:#58355e;stroke:none"
       transform="matrix(0.89947093,0,0,0.89947093,26.15,-3.75)"
       d="m 239.5,110 c 26.072,0 49.697,10.589 66.804,27.696 17.107,17.107 27.696,40.732 27.696,66.804 0,26.072 -10.589,49.697 -27.696,66.804 C 289.197,288.411 265.572,299 239.5,299 213.428,299 189.803,288.411 172.696,271.304 155.589,254.197 145,230.572 145,204.5 145,178.428 155.589,154.803 172.696,137.696 189.803,120.589 213.428,110 239.5,110 Z"
       id="ID0.8611838519573212" />
    <g
       transform="translate(156,95)"
       id="ID0.14708210667595267">
      <path
         style="fill:#ffffff;stroke:none"
         transform="matrix(1.0974839,0,0,0.27437097,-216.5,65.9)"
         d="m 217,189 118,0 0,32 -118,0 0,-32 z"
         id="ID0.9165488723665476" />
      <path
         style="fill:#ffffff;stroke:none"
         transform="matrix(1.0997877,0,0,1.0997877,-180.2,-113.2)"
         d="m 188,143 109,0 0,64 -109,0 0,-64 z"
         id="ID0.5186432399787009" />
      <path
         style="fill:none;stroke:#58355e;stroke-width:2"
         transform="matrix(1.157117,0,0,1.0429021,-192.3,-94.55)"
         d="m 195,139 92,0 0,56 -92,0 0,-56 z"
         id="ID0.34681918751448393" />
      <g
         id="ID0.9133509709499776">
        <path
           style="fill:#58355e;stroke:none"
           transform="matrix(0.93242866,0,0,0.93242866,-145.55,-56.7)"
           d="m 260.5,148 c 3.173,0 6.048,1.289 8.13,3.37 2.081,2.082 3.37,4.957 3.37,8.13 0,3.173 -1.289,6.048 -3.37,8.13 -2.082,2.081 -4.957,3.37 -8.13,3.37 -3.173,0 -6.048,-1.289 -8.13,-3.37 -2.081,-2.082 -3.37,-4.957 -3.37,-8.13 0,-3.173 1.289,-6.048 3.37,-8.13 2.082,-2.081 4.957,-3.37 8.13,-3.37 z"
           id="ID0.8872028514742851" />
        <path
           style="fill:#58355e;stroke:none"
           transform="matrix(0.93242866,0,0,0.93242866,-145.15,-83)"
           d="m 260.5,148 c 3.173,0 6.048,1.289 8.13,3.37 2.081,2.082 3.37,4.957 3.37,8.13 0,3.173 -1.289,6.048 -3.37,8.13 -2.082,2.081 -4.957,3.37 -8.13,3.37 -3.173,0 -6.048,-1.289 -8.13,-3.37 -2.081,-2.082 -3.37,-4.957 -3.37,-8.13 0,-3.173 1.289,-6.048 3.37,-8.13 2.082,-2.081 4.957,-3.37 8.13,-3.37 z"
           id="path13" />
        <path
           style="fill:#58355e;stroke:none"
           transform="matrix(0.93242866,0,0,0.93242866,-172.9,-70.6)"
           d="m 260.5,148 c 3.173,0 6.048,1.289 8.13,3.37 2.081,2.082 3.37,4.957 3.37,8.13 0,3.173 -1.289,6.048 -3.37,8.13 -2.082,2.081 -4.957,3.37 -8.13,3.37 -3.173,0 -6.048,-1.289 -8.13,-3.37 -2.081,-2.082 -3.37,-4.957 -3.37,-8.13 0,-3.173 1.289,-6.048 3.37,-8.13 2.082,-2.081 4.957,-3.37 8.13,-3.37 z"
           id="path15" />
        <path
           style="fill:none;stroke:#58355e;stroke-width:7;stroke-linecap:round"
           transform="matrix(1.0997877,0,0,-1.0997877,-188.75,268)"
           d="m 260.25,159.95 -22.75,13 23,11.25"
           id="ID0.9457071949727833" />
      </g>
    </g>
  </g>
</svg>
